<?xml version="1.0" standalone="no"?>
<!DOCTYPE svg PUBLIC "-//W3C//DTD SVG 20010904//EN"
 "http://www.w3.org/TR/2001/REC-SVG-20010904/DTD/svg10.dtd">
<svg version="1.0" xmlns="http://www.w3.org/2000/svg"
 width="245.000000pt" height="256.000000pt" viewBox="0 0 245.000000 256.000000"
 preserveAspectRatio="xMidYMid meet">

<g transform="translate(0.000000,256.000000) scale(0.100000,-0.100000)"
fill="#000000" stroke="none">
<path d="M1065 2468 c-113 -33 -143 -38 -158 -28 -15 9 -17 9 -12 0 9 -15 684
-1083 740 -1172 l40 -63 3 263 2 262 50 0 50 0 0 50 0 50 55 0 55 0 0 -50 0
-50 50 0 50 0 0 -547 1 -548 36 40 c104 116 255 395 318 587 88 273 107 503
66 827 -6 46 -12 85 -13 86 -12 10 -340 97 -363 97 -16 -1 -32 4 -36 9 -6 10
-763 230 -784 228 -5 -1 -73 -19 -150 -41z m795 -233 c0 -32 -2 -35 -30 -35
-28 0 -30 3 -30 35 0 32 2 35 30 35 28 0 30 -3 30 -35z m110 -50 c0 -33 -2
-35 -35 -35 -33 0 -35 2 -35 35 0 33 2 35 35 35 33 0 35 -2 35 -35z m108 -3
c3 -18 -1 -22 -22 -22 -19 0 -26 5 -26 18 0 39 43 43 48 4z m-248 -75 c0 -24
-2 -46 -4 -48 -3 -3 -23 -3 -45 -1 l-41 4 0 44 0 44 45 0 45 0 0 -43z m168
-49 c-3 -29 -7 -33 -35 -36 -32 -3 -33 -2 -33 32 0 35 1 36 36 36 34 0 35 -1
32 -32z m-108 -73 l0 -45 -45 0 -45 0 0 45 0 45 45 0 45 0 0 -45z m-110 -100
l0 -55 -55 0 -55 0 0 33 c0 68 8 77 61 77 l49 0 0 -55z m189 49 c31 -7 32 -8
29 -58 -3 -56 -13 -63 -74 -51 -33 6 -34 7 -34 54 0 64 7 69 79 55z"/>
<path d="M446 2294 c-219 -62 -401 -115 -403 -118 -3 -3 -14 -83 -26 -178 -17
-151 -19 -188 -9 -289 41 -412 182 -760 433 -1064 62 -75 75 -86 77 -67 5 31
52 32 52 1 0 -13 -8 -23 -21 -26 -19 -5 -18 -9 18 -46 21 -22 30 -37 21 -34
-10 3 -20 1 -24 -5 -9 -14 18 -29 32 -18 7 7 19 1 34 -15 19 -21 21 -25 7 -25
-10 0 -17 -8 -17 -20 0 -13 7 -20 20 -20 11 0 20 7 20 15 0 8 2 15 5 15 3 0
42 -32 88 -71 154 -133 443 -325 477 -316 31 8 255 156 356 235 l102 80 28
-27 c15 -14 23 -19 18 -11 -13 19 -573 894 -709 1107 l-100 157 -3 -262 -2
-262 -50 0 -50 0 0 -50 0 -50 -54 0 -55 0 -3 -52 -3 -53 -50 0 -50 0 -3 58 -3
57 51 0 c45 0 50 2 50 23 0 12 3 32 6 44 6 20 2 22 -47 25 l-54 3 0 173 c1
626 6 1015 14 1007 9 -10 198 -329 795 -1347 164 -280 302 -508 306 -508 11 0
209 189 220 211 8 14 -33 91 -207 386 -119 202 -359 611 -534 908 -228 389
-322 540 -335 542 -11 0 -198 -50 -418 -113z m474 -1419 l0 -55 -50 0 -50 0 0
55 0 55 50 0 50 0 0 -55z m-127 -55 c4 0 7 -20 7 -45 l0 -45 -50 0 -50 0 0 43
c0 54 5 59 50 53 19 -3 38 -5 43 -6z m-123 -115 c0 -33 -2 -35 -35 -35 -33 0
-35 2 -35 35 0 33 2 35 35 35 33 0 35 -2 35 -35z m188 -47 c-3 -43 -3 -43 -43
-43 -40 0 -40 0 -43 43 l-3 42 46 0 46 0 -3 -42z m-158 -84 c0 -34 -1 -35 -32
-32 -29 3 -33 7 -36 36 -3 31 -2 32 32 32 35 0 36 -1 36 -36z m78 -20 c18 -5
22 -13 20 -33 -2 -20 -8 -26 -28 -26 -21 0 -26 5 -28 33 -3 34 -1 35 36 26z"/>
<path d="M1940 2370 c0 -13 7 -20 20 -20 13 0 20 7 20 20 0 13 -7 20 -20 20
-13 0 -20 -7 -20 -20z"/>
<path d="M2005 2300 c3 -5 10 -10 16 -10 5 0 9 5 9 10 0 6 -7 10 -16 10 -8 0
-12 -4 -9 -10z"/>
<path d="M2120 2295 c0 -8 7 -15 15 -15 8 0 15 7 15 15 0 8 -7 15 -15 15 -8 0
-15 -7 -15 -15z"/>
<path d="M1790 1675 l0 -45 45 0 45 0 0 45 0 45 -45 0 -45 0 0 -45z"/>
<path d="M720 1085 l0 -45 45 0 45 0 0 45 0 45 -45 0 -45 0 0 -45z"/>
<path d="M450 465 c0 -8 7 -15 15 -15 8 0 15 7 15 15 0 8 -7 15 -15 15 -8 0
-15 -7 -15 -15z"/>
</g>
</svg>
